<svg xmlns="http://www.w3.org/2000/svg" width="1982.749" height="1806.249" viewBox="0 0 1982.749 1806.249">
  <path id="Path_3" data-name="Path 3" d="M.015,2437.29c6.729,0,85.592-.953,88.732,0s53.066-1.906,55.757,0,1753.129-2.383,1760.306,0,71.2-2.383,73.439,0,0,32.886,0,32.886,2.294,523.96.661,526.78-13.067,13.233-13.067,16.053,1.633,14.318,0,19.525-31.035,36.229-31.035,42.738.613,69.855-1.021,79.4-11.23,41.652-35.527,50.114-40.019-9.762-42.265-23.43,1.225-45.341-1.225-52.066-10.413-17.139-11.23-23.647-.2-19.524-1.225-21.043-4.9-21.694-17.968-21.477-27.768,35.361-27.156,38.4.408,64.648,0,65.95,2.858,64.214,2.858,64.214l8.43,136.479s3.451,94.591,0,105.589-2.76,71.86-1.725,76.26,3.451,115.855,2.415,137.12-10.007,106.689-13.457,116.222-4.831,36.3-4.831,39.229-3.106,107.423-3.106,107.423-3.451,46.562,0,55.361,5.866,56.094,5.866,56.094l1.725,50.228s2.76,55.361,3.105,63.427,0,44.363-17.6,63.061-41.753-24.931-41.407-32.63-4.141-23.464,1.38-71.493,12.767-94.59,12.767-94.59,4.141-34.464,2.07-39.963-1.38-58.661,0-66.36,2.761-28.964,3.106-38.863,3.106-75.893-5.521-85.425-26.225-15.031-26.57-22.731,5.521-107.423,8.972-140.787,5.176-66.36,3.106-76.625-3.106-17.6-5.866-22.731-21.394-21.264-23.809-33-11.042-35.2-9.317-41.8,2.415-93.491,6.9-117.688,10.007-122.455,10.007-128.321-3.105-27.864-3.451-35.93-2.76-99.269,0-113.978,1.035-59.8,0-63.1-5.866-44.73-40.027-50.229c-4.831,2.566-10.7,5.866-11.387,13.2s-8.972,40.33-19.668,50.229-17.253,19.065-37.612,20.165-36.577-27.5-36.577-27.5-26.224-11-35.886,9.9-27.95,105.59-27.95,113.656-12.422,119.521-10.352,136.753,0,62.327,2.415,69.66,11.387,53.528,11.387,53.528,4.486,70.394,3.105,78.826-8.626,23.464-6.9,34.829,6.9,37.4,6.9,40.329-3.105,46.562-3.105,49.129-14.493,41.429-13.8,50.961,1.38,40.7,6.556,57.195,8.281,61.227,9.661,68.927,2.761,65.627,3.105,71.86,0,93.124,0,93.124-3.451,34.1-24.154,31.9-38.3-31.9-38.3-31.9-11.042-29.33-8.282-109.623,4.831-102.29,4.831-107.056-2.76-88.724-12.077-106.689-23.464-37.763-24.844-50.962,0-130.154,5.176-143.719,5.521-70.027,5.521-72.959-.345-49.129,0-54.262-6.556-40.7-14.493-45.1-13.112,11.365-13.112,11.365l-17.6,36.3s-9.662,11-21.394,8.8-26.915-17.965-25.88-21.631-5.176-61.594-5.176-61.594-7.591-20.165-9.662-24.564-4.141-45.829-4.141-45.829-5.176-34.463-22.429-41.8-26.225,49.128-26.225,49.128L1255,3252.677s-1.38,90.558,0,92.024,3.105,86.525,3.105,86.525-6.9,55.361-13.112,64.16-17.253,29.7-22.084,29.7-20.7,1.467-25.535-3.3-28.985-25.3-27.95-34.1-3.451-53.528-3.8-59.027.69-13.2-1.38-22.365-13.112-69.293-14.147-78.459-4.831-12.832-10.352-15.032-13.457,6.233-18.633,6.233-29.33-12.832-30.71-15.032-9.317-23.831-7.936-31.9,6.875-111.544-22.283-151.2c-7-.62-24.492,26.024-24.492,26.024s-13.413,22.305-14,26.023-11.08,38.416-18.078,41.514-12.246,1.239-16.328,4.957-5.248,44.612-26.825,42.133-26.825-19.208-26.825-19.208-.583-86.125-8.747-90.462-7.581-18.588-16.911-12.393c-1.75,3.1-8.164,43.992-8.164,50.808v154.4s-2.916,148.441-2.916,150.685V3544.1s-7,86.745-43.737,115.247c-23.909,19.827-40.821-3.1-40.821-3.1s-11.663-29.741-12.246-48.949-9.331-16.729-9.331-19.827,2.916-35.937-5.832-37.177-20.41,13.012-20.41,13.012-31.49,4.338-39.071-23.545-5.248-79.929-3.5-87.984,12.246-56.384,11.663-58.863,0-158,0-158-11.663-29.741-8.164-38.415-1.749-62.58,0-64.439-21.577-80.549-27.408-80.549-9.914,1.24-9.914,4.337,3.5,29.122,0,32.839-8.164,17.349-14,17.968-16.912-4.957-29.158-13.011,4.082,45.851,4.082,45.851,11.08,59.779,6.415,65.517-8.164,65.22-46.069,63.361-20.994-63.361-20.994-63.361-2.333-82.47,0-87.625,0-57.822,0-57.822l-4.665-29.741s-8.164-19.827-7.581-37.176a24.8,24.8,0,0,0-14-23.545s-18.661,13.012-23.326,11.153-26.242-16.109-29.741-41.513-29.741-7.435-29.741-7.435-15.745.62-4.082,61.341c1.166,18.588,2.916,82.407,4.082,90.462s1.749,70.016,0,83.647-2.916,45.851-4.082,52.667-4.082,29.741,0,42.133-2.916,54.525-4.082,57.623-4.082,32.219,0,42.753,12.246,39.654,11.08,47.09-2.916,58.628-31.49,81.788c-28.575,19.827-49.568-33.458-49.568-33.458s4.082-84.886,6.415-86.745,1.749-55.145,0-58.863-8.747-57-6.415-62.58-5.248-91.7-13.413-104.094-13.413-11.153-14.579-13.012-7.581-13.011-11.08-11.153-15.162,30.981-15.162,30.981-15.162,16.729-30.324,0c-7-9.294-7.581-46.471-9.33-48.949s-13.413-18.588-25.659,3.718c-1.749,22.306,1.749,118.965,0,121.443s.583,57,0,60.1,3.5,29.741,4.082,30.98,4.665,43.992,4.665,51.427,3.5,58.243,0,65.059-12.246,30.361-12.246,35.937,3.5,30.98,3.5,42.133-5.832,29.741-8.164,37.8-11.08,27.882-11.08,29.741-.583,189.6,0,199.513-1.749,76.831,0,84.886,2.916,199.513,2.916,199.513,0,59.482-23.909,58.243-29.158-29.74-29.158-29.74l-2.333-70.635s9.33-127.639,9.33-129.5,8.747-67.537,9.33-69.4,5.248-53.906,5.248-61.961,8.164-50.807,0-61.341-4.665-97.9-5.248-100.376-38.488-55.765-39.071-61.341-6.415-57.623,0-72.494,13.413-81.169,11.663-92.941-7-24.784-7.581-35.937,2.333-54.526,7.581-63.819c1.749-9.294,1.166-46.471-2.916-54.526s-9.914-33.459-11.663-42.133,1.166-30.98-6.415-37.8-11.663,1.239-11.663,5.577,7.581,42.752,4.665,48.329-1.749,27.262-22.16,34.7-25.659-43.372-25.659-43.372,5.248-83.647,5.248-89.224,1.166-55.765,0-62.58-5.832-40.274-12.246-43.992-7.581,30.361-7.581,30.361,6.415,42.133,7.581,43.992,1.166,41.513-18.661,43.372-29.158-24.165-29.158-27.262v-83.027s2.333-55.145-30.324-101-14-103.474-14-103.474-8.747-65.059-16.328-81.788-8.747-21.686-9.914-30.98S-6.713,2437.29.015,2437.29Z" transform="translate(3.252 -2436.548)" fill="#fff"/>
</svg>
