<svg xmlns="http://www.w3.org/2000/svg" xmlns:xlink="http://www.w3.org/1999/xlink" width="1968" height="1096.999" viewBox="0 0 1968 1096.999">
  <defs>
    <filter id="Intersection_1" x="0" y="0" width="1968" height="1096.999" filterUnits="userSpaceOnUse">
      <feOffset dx="40" dy="3" input="SourceAlpha"/>
      <feGaussianBlur stdDeviation="3" result="blur"/>
      <feFlood flood-opacity="0.239"/>
      <feComposite operator="in" in2="blur"/>
      <feComposite in="SourceGraphic"/>
    </filter>
  </defs>
  <g id="BACKGROUND_PAGE_1" data-name="BACKGROUND PAGE 1" transform="translate(0 6)">
    <g transform="matrix(1, 0, 0, 1, 0, -6)" filter="url(#Intersection_1)">
      <path id="Intersection_1-2" data-name="Intersection 1" d="M-253.151,1126.5c-6.175-7-13.314-15.691-14.752-22.8-2.433-12.037-11.122-36.113-9.384-42.884s2.433-95.925,6.952-120.752,10.08-125.642,10.08-131.661-3.128-28.589-3.476-36.865-2.781-101.853,0-116.945,1.042-61.361,0-64.747-5.909-45.894-40.32-51.536c-4.866,2.633-10.775,6.018-11.47,13.542s-9.037,41.379-19.812,51.536-17.379,19.561-37.886,20.689-36.844-28.213-36.844-28.213-26.416-11.285-36.148,10.156-28.154,108.338-28.154,116.615-12.513,122.632-10.427,140.313,0,63.949,2.433,71.473,11.47,54.922,11.47,54.922,4.519,72.226,3.128,80.878-8.689,24.074-6.952,35.736c.755,5.067,2.167,12.975,3.521,20.545H-569.36c.325-40.762,2.1-99.811,5.665-109.322,5.214-13.918,5.561-71.85,5.561-74.859s-.347-50.407,0-55.674-6.6-41.755-14.6-46.269-13.208,11.661-13.208,11.661l-17.726,37.241s-9.733,11.286-21.55,9.028-27.112-18.432-26.068-22.194-5.214-63.2-5.214-63.2-7.647-20.69-9.733-25.2-4.171-47.022-4.171-47.022-5.214-35.36-22.593-42.883-26.417,50.407-26.417,50.407l-5.909,88.4s-1.391,92.915,0,94.42,3.128,88.777,3.128,88.777-6.951,56.8-13.208,65.831-17.379,30.47-22.245,30.47-20.855,1.5-25.721-3.386-29.2-25.956-28.155-34.984-3.476-54.922-3.823-60.564.695-13.542-1.391-22.947-13.208-71.1-14.251-80.5-4.866-13.165-10.427-15.423-13.556,6.4-18.769,6.4-29.544-13.166-30.935-15.423-9.384-24.451-7.995-32.727,6.925-114.448-22.445-155.135c-7.049-.636-24.672,26.7-24.672,26.7s-13.511,22.886-14.1,26.7-11.161,39.415-18.211,42.594-12.335,1.272-16.448,5.086-5.287,45.773-27.021,43.23-27.021-19.707-27.021-19.707-.588-88.367-8.812-92.817-7.637-19.073-17.034-12.715c-1.763,3.179-8.224,45.137-8.224,52.131V931.033s-2.938,152.305-2.938,154.607V1126.5H-1259.85c-6.277-29.387-4.079-77.767-2.409-85.6,1.762-8.265,12.335-57.852,11.748-60.4s0-162.112,0-162.112-11.748-30.515-8.223-39.416-1.762-64.209,0-66.117-21.734-82.645-27.608-82.645-9.986,1.272-9.986,4.451,3.524,29.88,0,33.694-8.223,17.8-14.1,18.436-17.035-5.085-29.371-13.35,4.112,47.044,4.112,47.044,11.161,61.335,6.462,67.223-8.224,66.918-46.406,65.01-21.147-65.01-21.147-65.01-2.35-84.616,0-89.906,0-59.327,0-59.327l-4.7-30.515s-8.224-20.344-7.636-38.144a25.427,25.427,0,0,0-14.1-24.158s-18.8,13.35-23.5,11.443-26.434-16.529-29.958-42.593-29.958-7.629-29.958-7.629-15.86.636-4.111,62.938c1.174,19.072,2.937,84.552,4.111,92.817s1.763,71.838,0,85.824-2.937,47.045-4.111,54.038-4.112,30.515,0,43.23-2.938,55.945-4.112,59.124-4.112,33.058,0,43.866,12.335,40.686,11.161,48.316-2.938,60.154-31.721,83.917c-28.784,20.344-49.93-34.33-49.93-34.33s4.112-87.1,6.461-89,1.762-56.58,0-60.4-8.811-58.487-6.461-64.209-5.287-94.089-13.511-106.8-13.51-11.443-14.685-13.351-7.637-13.35-11.161-11.443-15.272,31.787-15.272,31.787-15.273,17.165-30.546,0c-7.049-9.536-7.637-47.68-9.4-50.224s-13.511-19.072-25.846,3.814c-1.762,22.887,1.762,122.062,0,124.6s.588,58.488,0,61.667,3.524,30.515,4.112,31.786,4.7,45.138,4.7,52.766,3.524,59.76,0,66.752-12.335,31.152-12.335,36.873,3.524,31.787,3.524,43.23c0,6.1-1.672,14.38-3.588,22.027h-89.64c-1.416-14.087-5.261-56.938.416-70.343,6.462-15.258,13.511-83.282,11.749-95.36s-7.049-25.43-7.636-36.873,2.35-55.945,7.636-65.48c1.762-9.536,1.175-47.68-2.938-55.945s-9.985-34.33-11.748-43.23,1.175-31.787-6.462-38.78-11.748,1.272-11.748,5.721,7.636,43.866,4.7,49.588-1.762,27.971-22.322,35.6-25.846-44.5-25.846-44.5,5.286-85.824,5.286-91.545,1.175-57.217,0-64.21-5.874-41.323-12.335-45.137-7.636,31.151-7.636,31.151,6.461,43.23,7.636,45.138,1.174,42.593-18.8,44.5S-1918.4,662-1918.4,658.822V573.633s1.493-35.921-14.543-74.319V47.5h1919v570.22c-8.754,11.34-26.6,31.685-26.6,36.869,0,6.677.616,71.673-1.029,81.467s-11.312,42.736-35.787,51.418-40.311-10.016-42.574-24.04,1.234-46.521-1.234-53.42-10.489-17.585-11.312-24.263-.205-20.032-1.234-21.59-4.936-22.259-18.1-22.036-27.971,36.282-27.354,39.4.411,66.332,0,67.667,2.879,65.886,2.879,65.886l8.492,140.032s3.476,97.053,0,108.338c-2.5,8.1-2.84,42.582-2.451,63.053Z" transform="translate(1932.94 -41.5)" fill="#fff"/>
    </g>
  </g>
</svg>
