<svg xmlns="http://www.w3.org/2000/svg" width="1919.999" height="2160" viewBox="0 0 1919.999 2160">
  <path id="Subtraction_1" data-name="Subtraction 1" d="M7.155,2162H4.2V1377.99L7.155,2162Zm1457.02-232.793h-.01a421.447,421.447,0,0,1-55.8-3.352c-17.917-2.422-32.741-6.113-44.059-10.968a145.5,145.5,0,0,1-15.793-3.567c-5.634-1.569-11.906-3.577-18.642-5.966-12.731-4.516-27.625-10.578-44.269-18.015-15.288-6.831-32.44-15-50.978-24.27-16.786-8.4-35.143-17.917-54.562-28.3-31.943-17.077-68.068-37.188-107.372-59.775-33.331-19.153-62.732-36.5-84.2-49.166l-.007,0c-20.641-12.177-34.276-20.222-35.929-20.717-14.827-8.605-31.855-17.858-50.608-27.5-17.947-9.228-37.952-19.059-59.46-29.22-20.515-9.692-42.943-19.942-66.662-30.465-22.552-10.005-46.849-20.514-72.216-31.234-87.966-37.177-192.738-78.612-311.408-123.154-204.471-76.748-380.6-136.581-388-139.09V2h1920V1824.751c-2.664-4.542-6.99-8.817-12.859-12.706a91.092,91.092,0,0,0-19.65-9.5,154.365,154.365,0,0,0-46.31-8.492,134.886,134.886,0,0,0-20.263,1.967,162.78,162.78,0,0,0-20,4.819,206.761,206.761,0,0,0-19.694,7.208c-6.226,2.63-12.736,5.7-19.349,9.135-11.434,5.935-23.7,13.2-37.5,22.206-12.2,7.965-24.11,16.3-35.624,24.362l-.014.01-.006,0c-14.5,10.148-28.187,19.734-41.327,27.812-7.041,4.329-13.32,7.854-19.2,10.778a126.457,126.457,0,0,1-18.113,7.5,306.443,306.443,0,0,1-30.709,7.768c-11.482,2.348-23.955,4.409-37.074,6.126-13.3,1.741-27,3.093-40.712,4.018C1491.609,1928.721,1477.6,1929.206,1464.175,1929.206Z" transform="translate(-4.202 -2)" fill="#272c48"/>
</svg>
