<svg xmlns="http://www.w3.org/2000/svg" xmlns:xlink="http://www.w3.org/1999/xlink" width="1920" height="1085.5" viewBox="0 0 1920 1085.5">
  <defs>
    <filter id="Intersection_1" x="134.561" y="0" width="1681.034" height="743.007" filterUnits="userSpaceOnUse">
      <feOffset dx="40" dy="3" input="SourceAlpha"/>
      <feGaussianBlur stdDeviation="3" result="blur"/>
      <feFlood flood-opacity="0.239"/>
      <feComposite operator="in" in2="blur"/>
      <feComposite in="SourceGraphic"/>
    </filter>
  </defs>
  <g id="Group_15" data-name="Group 15" transform="translate(0 -1074.5)">
    <g transform="matrix(1, 0, 0, 1, 0, 1074.5)" filter="url(#Intersection_1)">
      <path id="Intersection_1-2" data-name="Intersection 1" d="M-1695.316,1814.289c.347-7.9-4.171-24.075,1.391-73.354s12.86-97.052,12.86-97.052,4.172-35.361,2.086-41-1.391-60.187,0-68.088,2.78-29.718,3.128-39.874,3.128-77.868-5.561-87.648-26.416-15.422-26.763-23.323,5.561-110.219,9.037-144.452,5.214-68.088,3.128-78.62-3.128-18.056-5.909-23.323c-1.059-2.005-4.436-5.647-8.347-10.053h82.036c.155,7.524.412,12.972.693,14.191,1.043,4.514,3.477,118.871,2.434,140.69s-10.08,109.466-13.556,119.247-4.866,37.24-4.866,40.25-3.128,110.219-3.128,110.219-3.476,47.774,0,56.8,5.909,57.554,5.909,57.554l1.738,51.536s2.78,56.8,3.128,65.077,0,45.517-17.727,64.7c-3.08,3.334-6.362,4.736-9.677,4.737C-1679.046,1852.51-1695.6,1820.817-1695.316,1814.289Zm-1508.972-84.254c-24.084-1.271-29.371-30.515-29.371-30.515l-2.35-72.473s9.4-130.963,9.4-132.87,8.811-69.295,9.4-71.2,5.287-55.309,5.287-63.574,8.224-52.13,0-62.937-4.7-100.446-5.287-102.99-38.769-57.216-39.357-62.938c-.059-.569-.169-1.61-.315-3.038h89.285c-1.608,6.3-3.342,12.089-4.383,15.753-2.349,8.265-11.16,28.607-11.16,30.515s-.588,194.535,0,204.707-1.763,78.831,0,87.1,2.937,204.706,2.937,204.706,0,59.777-23.347,59.779C-3203.795,1730.055-3204.04,1730.048-3204.288,1730.035Zm1256.628-148.6c-20.855-2.258-38.581-32.728-38.581-32.728s-11.123-30.093-8.342-112.477,4.866-104.952,4.866-109.842-2.781-91.034-12.166-109.467-23.636-38.746-25.025-52.288c-.432-4.212-.6-18.723-.459-37.138h98.354c1.7,9.473,3.251,18.19,3.251,19.833,0,3.01-3.128,47.775-3.128,50.408s-14.6,42.507-13.9,52.288,1.391,41.755,6.6,58.683,8.342,62.822,9.732,70.721,2.781,67.335,3.128,73.731,0,95.548,0,95.548-3.265,32.828-22.426,32.832A17.629,17.629,0,0,1-1947.66,1581.439Zm-681.549-330.747s-11.748-30.515-12.335-50.224-9.4-17.164-9.4-20.344,2.938-36.872-5.874-38.144-20.559,13.351-20.559,13.351-31.72,4.45-39.357-24.158q-.474-1.776-.9-3.674h173.6v8.123s-7.049,89-44.056,118.247c-7.27,6.141-13.9,8.285-19.61,8.285C-2620.907,1262.156-2629.21,1250.691-2629.21,1250.691Z" transform="translate(3391.44 -1121.5)" fill="#fff"/>
    </g>
    <g id="Rectangle_14" data-name="Rectangle 14" transform="translate(0 1080)" fill="#fff" stroke="#707070" stroke-width="1" opacity="0">
      <rect width="1920" height="1080" stroke="none"/>
      <rect x="0.5" y="0.5" width="1919" height="1079" fill="none"/>
    </g>
  </g>
</svg>
