<svg id="Layer_1" data-name="Layer 1" xmlns="http://www.w3.org/2000/svg" viewBox="0 0 1920 2160"><defs><style>.cls-1,.cls-2{fill:#272c48;}.cls-2{opacity:0;}</style></defs><title>Artboard 1</title><path class="cls-1" d="M1920,0V516.77c-2.67-4.54-7-8.82-12.86-12.71a91.36,91.36,0,0,0-19.65-9.5,154.54,154.54,0,0,0-46.31-8.49,134.83,134.83,0,0,0-20.26,2,160.87,160.87,0,0,0-20,4.82,205.27,205.27,0,0,0-19.7,7.21c-6.22,2.63-12.73,5.7-19.35,9.13-11.43,5.94-23.7,13.2-37.5,22.21-12.2,8-24.11,16.3-35.62,24.36h0c-7.25,5.08-14.3,10-21.17,14.68s-13.59,9.09-20.16,13.13c-7,4.33-13.32,7.86-19.2,10.78a127.19,127.19,0,0,1-18.11,7.5,306.69,306.69,0,0,1-30.71,7.77c-11.48,2.35-24,4.41-37.07,6.12-13.3,1.74-27,3.1-40.72,4-14.18,1-28.19,1.45-41.62,1.45h0a419.82,419.82,0,0,1-55.8-3.36c-17.91-2.42-32.74-6.11-44.06-11a147.63,147.63,0,0,1-15.79-3.57c-5.63-1.57-11.9-3.58-18.64-6-12.73-4.51-27.63-10.57-44.27-18-15.29-6.83-32.44-15-51-24.27-16.78-8.4-35.14-17.92-54.56-28.3-31.94-17.08-68.07-37.19-107.37-59.78-33.33-19.15-62.73-36.5-84.2-49.16h0c-20.64-12.18-34.27-20.22-35.93-20.72-14.83-8.6-31.85-17.86-50.61-27.5-17.94-9.23-38-19.06-59.46-29.22-20.51-9.69-42.94-19.94-66.66-30.46-22.55-10-46.85-20.52-72.21-31.24-88-37.18-192.74-78.61-311.41-123.15C183.53,78.81,7.4,19,0,16.47V0Z"/><rect class="cls-2" y="1.15" width="1920" height="1152"/><rect class="cls-2" x="-560.71" y="577.15" width="2630.52" height="730.09"/></svg>